<svg aria-hidden="true" style="position: absolute; width: 0; height: 0; overflow: hidden;" version="1.1" xmlns="http://www.w3.org/2000/svg" xmlns:xlink="http://www.w3.org/1999/xlink">
<defs>
<symbol id="icon-social_behance" viewBox="0 0 50 32">
<title>social_behance</title>
<path d="M45.417 4.571h-12.594v-3.246h12.594v3.246zM24.434 17.646c0.764 1.261 1.216 2.784 1.216 4.413 0 0.096-0.002 0.191-0.005 0.287l0-0.014c0.001 0.043 0.001 0.094 0.001 0.145 0 1.832-0.519 3.543-1.419 4.993l0.023-0.040c-0.606 0.994-1.369 1.829-2.263 2.498l-0.023 0.016c-0.993 0.769-2.187 1.329-3.489 1.591l-0.054 0.009c-1.296 0.285-2.787 0.451-4.316 0.457h-14.107v-32h15.109c0.238-0.021 0.515-0.033 0.795-0.033 2.937 0 5.563 1.331 7.307 3.424l0.012 0.015c0.903 1.307 1.443 2.925 1.443 4.669 0 0.078-0.001 0.156-0.003 0.234l0-0.011c0.006 0.11 0.009 0.239 0.009 0.368 0 1.637-0.545 3.147-1.462 4.358l0.013-0.018c-0.628 0.747-1.387 1.36-2.245 1.809l-0.041 0.019c1.47 0.546 2.672 1.526 3.48 2.784l0.017 0.028zM7.223 12.617h6.629c0.073 0.003 0.158 0.005 0.244 0.005 1.121 0 2.171-0.299 3.077-0.821l-0.030 0.016c0.788-0.557 1.297-1.464 1.297-2.491 0-0.113-0.006-0.225-0.018-0.334l0.001 0.014c0.011-0.095 0.018-0.206 0.018-0.317 0-1.167-0.694-2.171-1.691-2.624l-0.018-0.007c-1.007-0.322-2.166-0.508-3.369-0.508-0.118 0-0.235 0.002-0.351 0.005l0.017-0h-5.806zM19.063 21.874c0.009-0.093 0.014-0.201 0.014-0.311 0-1.377-0.811-2.564-1.982-3.109l-0.021-0.009c-0.833-0.337-1.798-0.532-2.81-0.532-0.113 0-0.226 0.002-0.338 0.007l0.016-0.001h-6.72v8.526h6.606c0.102 0.005 0.222 0.008 0.342 0.008 1.024 0 1.999-0.213 2.881-0.598l-0.047 0.018c1.252-0.704 2.084-2.024 2.084-3.538 0-0.163-0.010-0.323-0.028-0.481l0.002 0.019zM50.103 16.686c0.128 1.054 0.201 2.274 0.201 3.512 0 0.373-0.007 0.744-0.020 1.113l0.002-0.054h-16.32c-0.008 0.11-0.012 0.239-0.012 0.369 0 1.837 0.899 3.464 2.282 4.465l0.016 0.011c0.869 0.547 1.926 0.871 3.058 0.871 0.058 0 0.115-0.001 0.173-0.003l-0.008 0c0.065 0.003 0.141 0.005 0.218 0.005 1.149 0 2.205-0.398 3.038-1.064l-0.010 0.008c0.498-0.434 0.905-0.958 1.198-1.548l0.013-0.029h5.989c-0.282 1.637-1.059 3.056-2.17 4.135l-0.002 0.002c-1.966 2.069-4.737 3.355-7.809 3.355-0.22 0-0.438-0.007-0.655-0.020l0.030 0.001c-0.049 0.001-0.106 0.001-0.164 0.001-2.956 0-5.664-1.063-7.763-2.828l0.018 0.015c-2.142-2.055-3.474-4.941-3.474-8.137 0-0.354 0.016-0.704 0.048-1.050l-0.003 0.044c-0.018-0.255-0.029-0.552-0.029-0.851 0-3.182 1.18-6.089 3.127-8.306l-0.012 0.014c1.941-1.967 4.636-3.185 7.615-3.185 0.143 0 0.286 0.003 0.428 0.008l-0.020-0.001c0.058-0.001 0.127-0.002 0.196-0.002 1.84 0 3.588 0.396 5.163 1.108l-0.079-0.032c1.607 0.758 2.918 1.915 3.841 3.347l0.022 0.036c0.925 1.328 1.585 2.91 1.865 4.62l0.009 0.066zM44.206 17.28c0-0.022 0.001-0.049 0.001-0.075 0-2.651-2.149-4.8-4.8-4.8-0.089 0-0.177 0.002-0.264 0.007l0.012-0.001c-0.081-0.005-0.175-0.008-0.27-0.008-1.248 0-2.38 0.5-3.205 1.311l0.001-0.001c-0.85 0.949-1.415 2.17-1.552 3.516l-0.002 0.026z"></path>
</symbol>
<symbol id="icon-social_dribbble" viewBox="0 0 32 32">
<title>social_dribbble</title>
<path d="M16 0c-8.837 0-16 7.163-16 16s7.163 16 16 16c8.837 0 16-7.163 16-16v0c0-8.837-7.163-16-16-16v0zM25.8 8.3c1.55 1.947 2.531 4.407 2.659 7.092l0.001 0.028c-1.529-0.347-3.288-0.551-5.093-0.56l-0.007-0c-0 0-0.001 0-0.001 0-1.279 0-2.531 0.116-3.745 0.339l0.127-0.019q-0.42-1.020-0.84-2c2.717-1.155 5.019-2.809 6.886-4.864l0.014-0.016zM16 3.52c0.002 0 0.003 0 0.005 0 2.955 0 5.668 1.033 7.798 2.758l-0.023-0.018c-1.644 1.885-3.692 3.375-6.013 4.34l-0.107 0.040c-1.342-2.602-2.776-4.836-4.394-6.919l0.074 0.099c0.799-0.189 1.716-0.298 2.659-0.3h0.001zM10.48 4.82c1.637 1.979 3.119 4.201 4.36 6.569l0.101 0.211c-2.954 0.875-6.348 1.379-9.859 1.38h-1.201c0.933-3.609 3.342-6.528 6.528-8.127l0.072-0.033zM3.52 16s0-0.12 0-0.18h1.36c0.053 0 0.115 0 0.177 0 3.98 0 7.821-0.592 11.441-1.693l-0.278 0.073q0.36 0.8 0.72 1.66c-2.692 0.943-5.004 2.354-6.954 4.152l0.014-0.012c-1.293 1.175-2.427 2.488-3.392 3.923l-0.048 0.077c-1.86-2.132-3.006-4.929-3.040-7.993l-0-0.007zM16 28.48c-2.799-0.005-5.379-0.936-7.451-2.503l0.031 0.023c0.847-1.351 1.805-2.519 2.892-3.553l0.008-0.007c1.795-1.725 3.976-3.061 6.4-3.866l0.12-0.034c0.936 2.533 1.787 5.6 2.398 8.753l0.062 0.387c-1.301 0.507-2.808 0.8-4.382 0.8-0.027 0-0.055-0-0.082-0l0.004 0zM23.060 26.26c-0.674-3.296-1.467-6.105-2.44-8.828l0.14 0.448c0.767-0.115 1.652-0.18 2.552-0.18 0.003 0 0.006 0 0.009 0h-0c1.743 0.011 3.432 0.221 5.051 0.611l-0.151-0.031c-0.632 3.325-2.51 6.126-5.12 7.953l-0.040 0.027z"></path>
</symbol>
<symbol id="icon-social_fb" viewBox="0 0 18 32">
<title>social_fb</title>
<path d="M17.102 0h-4.267c-0.154-0.011-0.334-0.018-0.516-0.018-4.075 0-7.378 3.303-7.378 7.378 0 0.181 0.007 0.362 0.019 0.54l-0.001-0.024v3.556h-4.284c-0.006-0-0.014-0-0.022-0-0.363 0-0.658 0.294-0.658 0.658 0 0.025 0.001 0.050 0.004 0.074l-0-0.003v5.333c0 0 0 0 0 0 0 0.363 0.294 0.658 0.658 0.658 0.006 0 0.012-0 0.019-0l-0.001 0h4.284v13.28c0 0 0 0 0 0 0 0.363 0.295 0.658 0.658 0.658 0.006 0 0.012-0 0.019-0l-0.001 0h5.582c0.005 0 0.012 0 0.018 0 0.363 0 0.658-0.294 0.658-0.658 0-0 0-0 0-0v0-13.351h5.013c0.005 0 0.012 0 0.018 0 0.363 0 0.658-0.294 0.658-0.658 0-0 0-0 0-0v0-5.333c0-0.001 0-0.001 0-0.002 0-0.181-0.075-0.344-0.195-0.46l-0-0c-0.122-0.121-0.29-0.196-0.475-0.196-0.002 0-0.003 0-0.005 0h-5.013v-3.004c0-1.476 0.356-2.222 2.347-2.222h2.862c0.005 0 0.012 0 0.018 0 0.363 0 0.658-0.295 0.658-0.658 0-0 0-0 0-0v0-4.889c0-0 0-0 0-0 0-0.363-0.294-0.658-0.658-0.658-0.006 0-0.012 0-0.019 0l0.001-0z"></path>
</symbol>
<symbol id="icon-social_instagram" viewBox="0 0 32 32">
<title>social_instagram</title>
<path d="M23.16 0h-14.32c-4.882 0-8.84 3.958-8.84 8.84v0 14.34c0.011 4.874 3.965 8.82 8.84 8.82 0 0 0 0 0 0h14.34c4.874-0.011 8.82-3.965 8.82-8.84 0 0 0 0 0-0v0-14.32c0-4.882-3.958-8.84-8.84-8.84v0zM29.16 23.16c0 3.314-2.686 6-6 6v0h-14.32c-3.314 0-6-2.686-6-6v0-14.32c0-3.314 2.686-6 6-6v0h14.34c3.314 0 6 2.686 6 6v0zM16 7.76c-4.551 0-8.24 3.689-8.24 8.24s3.689 8.24 8.24 8.24c4.551 0 8.24-3.689 8.24-8.24v0c-0.011-4.546-3.694-8.229-8.239-8.24h-0.001zM16 21.4c-2.982 0-5.4-2.418-5.4-5.4s2.418-5.4 5.4-5.4c2.982 0 5.4 2.418 5.4 5.4v0c-0.011 2.978-2.422 5.389-5.399 5.4h-0.001zM24.6 5.4c-0.008-0-0.018-0-0.029-0-1.105 0-2 0.895-2 2s0.895 2 2 2c1.105 0 2-0.895 2-2 0-0.545-0.218-1.039-0.572-1.4l0 0c-0.349-0.386-0.843-0.635-1.396-0.66l-0.004-0z"></path>
</symbol>
<symbol id="icon-social_twitter" viewBox="0 0 39 32">
<title>social_twitter</title>
<path d="M37.783 0.594c-1.46 0.891-3.159 1.573-4.971 1.948l-0.104 0.018c-1.444-1.573-3.51-2.557-5.805-2.56h-0.001c-4.411 0.026-7.977 3.608-7.977 8.023 0 0.016 0 0.032 0 0.048v-0.002c-0 0.007-0 0.015-0 0.023 0 0.648 0.075 1.279 0.217 1.884l-0.011-0.056c-6.66-0.356-12.509-3.553-16.4-8.391l-0.034-0.044c-0.679 1.165-1.080 2.564-1.080 4.057 0 2.783 1.394 5.241 3.521 6.714l0.027 0.018c-1.335-0.052-2.573-0.427-3.65-1.049l0.038 0.020v0.183c-0 0.011-0 0.024-0 0.037 0 3.865 2.718 7.096 6.347 7.884l0.053 0.010c-0.619 0.174-1.33 0.274-2.065 0.274-0.013 0-0.027-0-0.040-0h0.002c-0.009 0-0.019 0-0.029 0-0.523 0-1.035-0.050-1.53-0.145l0.051 0.008c1.026 3.226 3.958 5.538 7.442 5.623l0.010 0c-2.663 2.095-6.066 3.361-9.763 3.361-0.047 0-0.094-0-0.141-0.001l0.007 0c-0.283 0.017-0.615 0.027-0.949 0.027s-0.665-0.010-0.994-0.029l0.045 0.002c3.406 2.208 7.571 3.521 12.042 3.521 0.066 0 0.131-0 0.196-0.001l-0.010 0c12.526-0.012 22.676-10.169 22.676-22.697 0-0.104-0.001-0.209-0.002-0.313l0 0.016v-1.051c1.559-1.151 2.872-2.529 3.917-4.101l0.037-0.059c-1.33 0.617-2.874 1.068-4.494 1.272l-0.078 0.008c1.65-1.024 2.886-2.579 3.481-4.423l0.016-0.057z"></path>
</symbol>
<symbol id="icon-social_vk" viewBox="0 0 53 32">
<title>social_vk</title>
<path d="M52.297 28.914l-0.183-0.366c-1.483-2.467-3.217-4.587-5.214-6.428l-0.020-0.018q-1.76-1.783-2.286-2.286c-0.335-0.395-0.538-0.91-0.538-1.473 0-0.292 0.055-0.571 0.155-0.828l-0.005 0.016c0.748-1.453 1.568-2.704 2.501-3.859l-0.033 0.042 1.783-2.491q4.663-7.040 4.114-8.937l-0.251-0.274c-0.219-0.239-0.508-0.409-0.835-0.478l-0.010-0.002c-0.264-0.062-0.568-0.097-0.88-0.097s-0.616 0.035-0.907 0.102l0.027-0.005h-7.886c-0.082-0.025-0.176-0.040-0.274-0.040s-0.192 0.015-0.281 0.042l0.007-0.002h-0.503c-0.116 0.083-0.214 0.181-0.295 0.293l-0.003 0.004c-0.109 0.145-0.201 0.311-0.27 0.489l-0.005 0.014c-0.955 2.671-1.972 4.919-3.146 7.069l0.129-0.257q-1.006 1.806-1.851 3.131c-0.453 0.743-0.92 1.385-1.434 1.986l0.017-0.021c-0.327 0.359-0.67 0.688-1.035 0.992l-0.017 0.013q-0.457 0.389-0.709 0.32l-0.457-0.114c-0.261-0.182-0.47-0.42-0.612-0.698l-0.005-0.011c-0.164-0.333-0.278-0.72-0.319-1.129l-0.001-0.014q0-0.686 0-1.189t0-1.394c0-0.594 0-1.006 0-1.234q0-1.12 0-2.4t0-2.057c0-0.503 0-1.051 0-1.6 0.019-0.199 0.030-0.429 0.030-0.663s-0.011-0.464-0.033-0.692l0.002 0.029c-0.075-0.357-0.177-0.67-0.309-0.968l0.012 0.031c-0.12-0.293-0.317-0.535-0.566-0.705l-0.005-0.003c-0.263-0.169-0.568-0.303-0.893-0.384l-0.021-0.004c-1.063-0.233-2.284-0.367-3.535-0.367-0.059 0-0.118 0-0.176 0.001l0.009-0c-0.444-0.041-0.959-0.065-1.481-0.065-1.805 0-3.545 0.283-5.176 0.807l0.12-0.033c-0.402 0.233-0.742 0.522-1.024 0.862l-0.005 0.006q-0.503 0.709-0.137 0.709c0.933 0.092 1.741 0.561 2.28 1.25l0.005 0.007 0.16 0.343c0.17 0.389 0.305 0.842 0.384 1.315l0.005 0.034c0.127 0.619 0.217 1.35 0.25 2.095l0.001 0.031c0.044 0.547 0.069 1.185 0.069 1.829s-0.025 1.281-0.074 1.912l0.005-0.084q-0.137 1.531-0.251 2.286c-0.061 0.509-0.19 0.972-0.378 1.404l0.012-0.032c-0.109 0.255-0.216 0.465-0.335 0.667l0.015-0.027-0.137 0.137c-0.212 0.087-0.459 0.137-0.717 0.137-0.005 0-0.010-0-0.015-0h0.001c-0.363-0.038-0.686-0.188-0.939-0.413l0.002 0.001c-0.429-0.332-0.804-0.7-1.133-1.107l-0.010-0.013c-0.462-0.586-0.9-1.244-1.287-1.935l-0.039-0.076q-0.731-1.166-1.531-2.903l-0.434-0.869q-0.411-0.823-1.12-2.286t-1.257-3.131c-0.13-0.374-0.36-0.685-0.658-0.911l-0.005-0.003h-0.137c-0.125-0.133-0.268-0.247-0.425-0.338l-0.009-0.005c-0.212-0.095-0.459-0.167-0.717-0.204l-0.015-0.002-7.383 0.069c-0.076-0.011-0.164-0.018-0.254-0.018-0.52 0-0.989 0.217-1.322 0.566l-0.001 0.001-0.183 0.274c-0.017 0.069-0.026 0.147-0.026 0.229s0.010 0.16 0.028 0.235l-0.001-0.007c0.009 0.29 0.067 0.563 0.166 0.817l-0.006-0.017q1.646 4.023 3.566 7.886t3.36 6.126q1.417 2.286 2.903 4.411t1.966 2.651l0.754 0.869 0.686 0.709c0.585 0.592 1.211 1.139 1.877 1.638l0.043 0.031c0.796 0.593 1.713 1.204 2.662 1.769l0.15 0.082c1.032 0.632 2.223 1.161 3.484 1.528l0.105 0.026c1.009 0.315 2.169 0.497 3.371 0.497 0.221 0 0.441-0.006 0.66-0.018l-0.030 0.001h3.154c0.566-0.022 1.072-0.263 1.44-0.64l0-0v-0.137c0.089-0.158 0.16-0.341 0.203-0.535l0.003-0.014c0.016-0.12 0.025-0.259 0.025-0.4s-0.009-0.28-0.027-0.416l0.002 0.016c-0.003-0.098-0.005-0.212-0.005-0.328 0-0.693 0.068-1.369 0.199-2.024l-0.011 0.066c0.097-0.567 0.256-1.073 0.473-1.547l-0.016 0.039c0.244-0.264 0.522-0.492 0.829-0.676l0.017-0.009c0.134-0.164 0.284-0.307 0.45-0.43l0.007-0.005h0.229c0.11-0.026 0.236-0.041 0.366-0.041 0.465 0 0.886 0.19 1.189 0.497l0 0c0.63 0.497 1.179 1.053 1.652 1.669l0.016 0.022q0.777 1.006 1.874 2.286c0.58 0.692 1.209 1.306 1.894 1.854l0.026 0.020 0.549 0.343c0.407 0.251 0.876 0.468 1.371 0.627l0.046 0.013c0.301 0.117 0.649 0.184 1.013 0.184 0.183 0 0.362-0.017 0.536-0.050l-0.018 0.003 7.017-0.114c0.052 0.003 0.113 0.005 0.174 0.005 0.531 0 1.031-0.137 1.464-0.379l-0.015 0.008c0.321-0.17 0.565-0.451 0.683-0.79l0.003-0.010c0.059-0.199 0.093-0.428 0.093-0.666 0-0.169-0.017-0.334-0.050-0.493l0.003 0.016c-0.069-0.304-0.163-0.571-0.284-0.823l0.010 0.023z"></path>
</symbol>
<symbol id="icon-phone" viewBox="0 0 32 32">
<title>phone</title>
<path d="M22 20c-2 2-2 4-4 4s-4-2-6-4-4-4-4-6 2-2 4-4-4-8-6-8-6 6-6 6c0 4 4.109 12.109 8 16s12 8 16 8c0 0 6-4 6-6s-6-8-8-6z"></path>
</symbol>
<symbol id="icon-location" viewBox="0 0 32 32">
<title>location</title>
<path d="M16 0c-5.523 0-10 4.477-10 10 0 10 10 22 10 22s10-12 10-22c0-5.523-4.477-10-10-10zM16 16c-3.314 0-6-2.686-6-6s2.686-6 6-6 6 2.686 6 6-2.686 6-6 6z"></path>
</symbol>
</defs>
</svg>
