<svg xmlns="http://www.w3.org/2000/svg" viewBox="0 0 10 18"><defs><style>.cls-1{fill:#0c0c0c}</style></defs><title>social_fb</title><g id="Слой_2" data-name="Слой 2"><path class="cls-1" d="M9.62 0h-2.4a4.15 4.15 0 0 0-4.43 4.43v2H.38a.37.37 0 0 0-.38.41v3a.37.37 0 0 0 .38.37h2.41v7.47a.37.37 0 0 0 .38.37h3.14a.37.37 0 0 0 .38-.37v-7.51h2.82a.37.37 0 0 0 .38-.37v-3a.36.36 0 0 0-.11-.26.38.38 0 0 0-.27-.11H6.69V4.74c0-.83.2-1.25 1.32-1.25h1.61a.37.37 0 0 0 .38-.37V.37A.37.37 0 0 0 9.62 0z" id="Слой_1-2" data-name="Слой 1"/></g></svg>