<svg xmlns="http://www.w3.org/2000/svg" viewBox="0 0 23 14"><defs><style>.cls-1{fill:#0c0c0c}</style></defs><title>social_vk</title><g id="Слой_2" data-name="Слой 2"><path class="cls-1" d="M22.88 12.65l-.08-.16a12.54 12.54 0 0 0-2.29-2.82q-.77-.78-1-1a1 1 0 0 1-.17-1A9.71 9.71 0 0 1 20.42 6l.78-1.09Q23.24 1.83 23 1l-.11-.12a.69.69 0 0 0-.37-.21 1.77 1.77 0 0 0-.77 0H18.3a.42.42 0 0 0-.24 0h-.22a.55.55 0 0 0-.13.13.9.9 0 0 0-.12.22A21.52 21.52 0 0 1 16.27 4q-.44.79-.81 1.37a6.57 6.57 0 0 1-.62.86 4.49 4.49 0 0 1-.46.44q-.2.17-.31.14l-.2-.05a.83.83 0 0 1-.27-.31 1.48 1.48 0 0 1-.14-.5V1.63a3.16 3.16 0 0 0 0-.58 2.1 2.1 0 0 0-.13-.41.68.68 0 0 0-.25-.31 1.34 1.34 0 0 0-.4-.17A7.54 7.54 0 0 0 11.06 0 7.4 7.4 0 0 0 8.2.31a1.64 1.64 0 0 0-.45.38Q7.53 1 7.69 1a1.44 1.44 0 0 1 1 .55l.07.15a2.55 2.55 0 0 1 .17.59 6.31 6.31 0 0 1 .11.93 10.6 10.6 0 0 1 0 1.6q-.06.67-.11 1a2.18 2.18 0 0 1-.16.6 2.53 2.53 0 0 1-.14.28l-.06.06a.85.85 0 0 1-.32.06.73.73 0 0 1-.41-.18 2.93 2.93 0 0 1-.5-.49 6.6 6.6 0 0 1-.58-.88Q6.44 4.76 6.09 4l-.19-.38q-.18-.36-.49-1t-.55-1.37a.84.84 0 0 0-.29-.4h-.06A.81.81 0 0 0 4.32.7 1.22 1.22 0 0 0 4 .61L.77.64a.8.8 0 0 0-.69.24L0 1a.44.44 0 0 0 0 .2 1.08 1.08 0 0 0 .07.35Q.79 3.31 1.63 5T3.1 7.68q.62 1 1.27 1.93t.86 1.16l.33.38.3.31a7.25 7.25 0 0 0 .84.73 14.23 14.23 0 0 0 1.23.81 6.48 6.48 0 0 0 1.57.68 5.11 5.11 0 0 0 1.75.21h1.38a.93.93 0 0 0 .63-.28v-.06a.89.89 0 0 0 .09-.24 1.38 1.38 0 0 0 0-.35 4.5 4.5 0 0 1 .08-1 2.72 2.72 0 0 1 .2-.66A1.64 1.64 0 0 1 14 11a1.08 1.08 0 0 1 .2-.19h.1a.73.73 0 0 1 .68.2 4.09 4.09 0 0 1 .73.74q.34.44.82 1a5.77 5.77 0 0 0 .84.82l.24.15a2.85 2.85 0 0 0 .62.28 1.26 1.26 0 0 0 .67.06l3.07-.05a1.32 1.32 0 0 0 .71-.16.62.62 0 0 0 .3-.35A1.06 1.06 0 0 0 23 13a1.68 1.68 0 0 0-.12-.35z" id="Слой_1-2" data-name="Слой 1"/></g></svg>