<svg xmlns="http://www.w3.org/2000/svg" viewBox="0 0 22.01 14"><defs><style>.cls-1{fill:#0c0c0c}</style></defs><title>social_behance</title><g id="Слой_2" data-name="Слой 2"><path class="cls-1" d="M19.87 2h-5.51V.58h5.51V2zm-9.18 5.72a3.77 3.77 0 0 1 .53 2.05 4.15 4.15 0 0 1-.61 2.23 3.84 3.84 0 0 1-1 1.1 3.71 3.71 0 0 1-1.55.7 9.37 9.37 0 0 1-1.89.2H0V0h6.61a4.16 4.16 0 0 1 3.55 1.49 3.62 3.62 0 0 1 .63 2.14 3.16 3.16 0 0 1-.63 2.06 3.23 3.23 0 0 1-1 .8 3.05 3.05 0 0 1 1.53 1.23zm-7.53-2.2h2.9a2.7 2.7 0 0 0 1.44-.35 1.33 1.33 0 0 0 .56-1.23 1.26 1.26 0 0 0-.74-1.29 5 5 0 0 0-1.62-.22H3.16zm5.18 4.05a1.5 1.5 0 0 0-.87-1.5 3.36 3.36 0 0 0-1.37-.23H3.16v3.73h2.89a3.16 3.16 0 0 0 1.39-.25 1.77 1.77 0 0 0 .9-1.75zM21.92 7.3a13.46 13.46 0 0 1 .08 2h-7.14a2.41 2.41 0 0 0 1 2.12 2.54 2.54 0 0 0 1.41.38 2.13 2.13 0 0 0 1.42-.46 2.18 2.18 0 0 0 .53-.69h2.62a3.28 3.28 0 0 1-.95 1.81 4.71 4.71 0 0 1-3.69 1.46 5.28 5.28 0 0 1-3.46-1.23 4.93 4.93 0 0 1-1.5-4 5.51 5.51 0 0 1 1.35-4A4.68 4.68 0 0 1 17.1 3.3a5.49 5.49 0 0 1 2.31.47 4 4 0 0 1 1.69 1.48 5 5 0 0 1 .82 2.05zm-2.58.26a2.1 2.1 0 0 0-2.21-2.13 2 2 0 0 0-1.52.57 2.73 2.73 0 0 0-.68 1.55z" id="Слой_1-2" data-name="Слой 1"/></g></svg>