<svg xmlns="http://www.w3.org/2000/svg" viewBox="0 0 16 16"><defs><style>.cls-1{fill:#0c0c0c}</style></defs><title>social_dribbble</title><g id="Слой_2" data-name="Слой 2"><path class="cls-1" d="M8 0a8 8 0 1 0 8 8 8 8 0 0 0-8-8zm4.9 4.15a6.2 6.2 0 0 1 1.33 3.56 12.32 12.32 0 0 0-2.55-.28 10.31 10.31 0 0 0-1.81.16q-.21-.51-.42-1a9.72 9.72 0 0 0 3.45-2.44zM8 1.76a6.2 6.2 0 0 1 3.89 1.37 8.1 8.1 0 0 1-3.06 2.19 21.94 21.94 0 0 0-2.16-3.41A6.09 6.09 0 0 1 8 1.76zm-2.76.65A19.15 19.15 0 0 1 7.47 5.8a18 18 0 0 1-4.93.69h-.6a6.26 6.26 0 0 1 3.3-4.08zM1.76 8v-.09h.68a19.63 19.63 0 0 0 5.67-.81q.18.4.36.83A9.87 9.87 0 0 0 5 10a10.67 10.67 0 0 0-1.72 2 6.2 6.2 0 0 1-1.52-4zM8 14.24A6.2 6.2 0 0 1 4.29 13a9 9 0 0 1 1.45-1.78A8.48 8.48 0 0 1 9 9.27a30.77 30.77 0 0 1 1.23 4.57 6.2 6.2 0 0 1-2.23.4zm3.53-1.11a32.1 32.1 0 0 0-1.15-4.19 9.09 9.09 0 0 1 1.28-.09 11.05 11.05 0 0 1 2.45.29 6.24 6.24 0 0 1-2.58 3.99z" id="Слой_1-2" data-name="Слой 1"/></g></svg>