<svg xmlns="http://www.w3.org/2000/svg" viewBox="0 0 17 14"><defs><style>.cls-1{fill:#0c0c0c;}</style></defs><title>social_twitter</title><g id="Слой_2" data-name="Слой 2"><g id="Слой_1-2" data-name="Слой 1"><path class="cls-1" d="M16.53.26a7,7,0,0,1-2.22.86A3.45,3.45,0,0,0,11.77,0,3.51,3.51,0,0,0,8.28,3.53a3.6,3.6,0,0,0,.09.81A9.86,9.86,0,0,1,1.18.65,3.57,3.57,0,0,0,2.26,5.37,3.46,3.46,0,0,1,.68,4.92V5a3.53,3.53,0,0,0,2.8,3.47,3.46,3.46,0,0,1-.92.12,3.52,3.52,0,0,1-.66-.06,3.5,3.5,0,0,0,3.26,2.46A6.94,6.94,0,0,1,.83,12.46a7.23,7.23,0,0,1-.83,0A9.78,9.78,0,0,0,5.35,14,9.93,9.93,0,0,0,15.27,3.94V3.48A7.07,7.07,0,0,0,17,1.66a6.89,6.89,0,0,1-2,.56A3.55,3.55,0,0,0,16.53.26Z"/></g></g></svg>