<svg xmlns="http://www.w3.org/2000/svg" viewBox="0 0 16 16"><defs><style>.cls-1{fill:#0c0c0c;}</style></defs><title>social_dribbble</title><g id="Слой_2" data-name="Слой 2"><g id="Слой_1-2" data-name="Слой 1"><path class="cls-1" d="M8,0a8,8,0,1,0,8,8A8,8,0,0,0,8,0Zm4.9,4.15a6.2,6.2,0,0,1,1.33,3.56,12.32,12.32,0,0,0-2.55-.28h0a10.31,10.31,0,0,0-1.81.16q-.21-.51-.42-1A9.72,9.72,0,0,0,12.9,4.15ZM8,1.76a6.2,6.2,0,0,1,3.89,1.37A8.1,8.1,0,0,1,8.83,5.32,21.94,21.94,0,0,0,6.67,1.91,6.09,6.09,0,0,1,8,1.76Zm-2.76.65A19.15,19.15,0,0,1,7.47,5.8a18,18,0,0,1-4.93.69h-.6A6.26,6.26,0,0,1,5.24,2.41ZM1.76,8s0-.06,0-.09h.68a19.63,19.63,0,0,0,5.67-.81q.18.4.36.83A9.87,9.87,0,0,0,5,10a10.67,10.67,0,0,0-1.72,2A6.2,6.2,0,0,1,1.76,8ZM8,14.24A6.2,6.2,0,0,1,4.29,13a9,9,0,0,1,1.45-1.78A8.48,8.48,0,0,1,9,9.27a30.77,30.77,0,0,1,1.23,4.57A6.2,6.2,0,0,1,8,14.24Zm3.53-1.11a32.1,32.1,0,0,0-1.15-4.19,9.09,9.09,0,0,1,1.28-.09h0a11.05,11.05,0,0,1,2.45.29A6.24,6.24,0,0,1,11.53,13.13Z"/></g></g></svg>