<svg xmlns="http://www.w3.org/2000/svg" viewBox="0 0 10 18"><defs><style>.cls-1{fill:#0c0c0c;}</style></defs><title>social_fb</title><g id="Слой_2" data-name="Слой 2"><g id="Слой_1-2" data-name="Слой 1"><path class="cls-1" d="M9.62,0H7.22A4.15,4.15,0,0,0,2.79,4.43v2H.38A.37.37,0,0,0,0,6.84v3a.37.37,0,0,0,.38.37H2.79v7.47a.37.37,0,0,0,.38.37H6.31a.37.37,0,0,0,.38-.37V10.17H9.51a.37.37,0,0,0,.38-.37v-3a.36.36,0,0,0-.11-.26.38.38,0,0,0-.27-.11H6.69V4.74c0-.83.2-1.25,1.32-1.25H9.62A.37.37,0,0,0,10,3.12V.37A.37.37,0,0,0,9.62,0Z"/></g></g></svg>