<svg style="position:absolute;width:0;height:0" xmlns="http://www.w3.org/2000/svg" overflow="hidden"><defs><symbol id="icon-social_behance" viewBox="0 0 50 32"><title>social_behance</title><path d="M45.417 4.571H32.823V1.325h12.594v3.246zM24.434 17.646a8.523 8.523 0 0 1 1.211 4.7v-.014l.001.145a9.437 9.437 0 0 1-1.419 4.993l.023-.04a8.854 8.854 0 0 1-2.263 2.498l-.023.016a8.424 8.424 0 0 1-3.489 1.591l-.054.009a20.824 20.824 0 0 1-4.316.457H-.002v-32h15.109a9.486 9.486 0 0 1 8.102 3.391l.012.015a8.208 8.208 0 0 1 1.44 4.903v-.011a7.195 7.195 0 0 1-1.453 4.726l.013-.018a7.433 7.433 0 0 1-2.245 1.809l-.041.019a7.01 7.01 0 0 1 3.48 2.784l.017.028zM7.223 12.617h6.629a6.142 6.142 0 0 0 3.321-.816l-.03.016a3.041 3.041 0 0 0 1.279-2.825l.001.014a2.881 2.881 0 0 0-1.673-2.941l-.018-.007a11.185 11.185 0 0 0-3.72-.503h.017-5.806zm11.84 9.257a3.427 3.427 0 0 0-1.968-3.42l-.021-.009a7.543 7.543 0 0 0-3.148-.525l.016-.001h-6.72v8.526h6.606a7.186 7.186 0 0 0 3.223-.59l-.047.018a4.051 4.051 0 0 0 2.056-4.019l.002.019zm31.04-5.188c.128 1.054.201 2.274.201 3.512 0 .373-.007.744-.02 1.113l.002-.054h-16.32a5.5 5.5 0 0 0 2.27 4.834l.016.011a5.743 5.743 0 0 0 3.231.868h-.008a4.848 4.848 0 0 0 3.256-1.059l-.01.008a5.006 5.006 0 0 0 1.198-1.548l.013-.029h5.989a7.502 7.502 0 0 1-2.17 4.135l-.002.002a10.736 10.736 0 0 1-8.464 3.335l.03.001-.164.001a12.02 12.02 0 0 1-7.763-2.828l.018.015a11.242 11.242 0 0 1-3.426-9.187l-.003.044a12.545 12.545 0 0 1 3.098-9.157l-.012.014a10.665 10.665 0 0 1 8.043-3.177l-.02-.001.196-.002c1.84 0 3.588.396 5.163 1.108l-.079-.032a9.214 9.214 0 0 1 3.841 3.347l.022.036a11.3 11.3 0 0 1 1.865 4.62l.009.066zm-5.897.594l.001-.075a4.8 4.8 0 0 0-5.064-4.793l.012-.001a4.558 4.558 0 0 0-3.475 1.303l.001-.001a6.21 6.21 0 0 0-1.552 3.516l-.002.026z"/></symbol><symbol id="icon-social_dribbble" viewBox="0 0 32 32"><title>social_dribbble</title><path d="M16 0C7.163 0 0 7.163 0 16s7.163 16 16 16 16-7.163 16-16S24.837 0 16 0zm9.8 8.3a12.316 12.316 0 0 1 2.659 7.092l.001.028a23.94 23.94 0 0 0-5.093-.56h-.008c-1.279 0-2.531.116-3.745.339l.127-.019q-.42-1.02-.84-2c2.717-1.155 5.019-2.809 6.886-4.864l.014-.016zM16 3.52h.005c2.955 0 5.668 1.033 7.798 2.758l-.023-.018a16.263 16.263 0 0 1-6.013 4.34l-.107.04c-1.342-2.602-2.776-4.836-4.394-6.919l.074.099a11.842 11.842 0 0 1 2.659-.3H16zm-5.52 1.3a38.114 38.114 0 0 1 4.36 6.569l.101.211c-2.954.875-6.348 1.379-9.859 1.38H3.881c.933-3.609 3.342-6.528 6.528-8.127l.072-.033zM3.52 16v-.18h1.537c3.98 0 7.821-.592 11.441-1.693l-.278.073q.36.8.72 1.66c-2.692.943-5.004 2.354-6.954 4.152L10 20a21.517 21.517 0 0 0-3.392 3.923L6.56 24a12.339 12.339 0 0 1-3.04-7.993V16zM16 28.48a12.345 12.345 0 0 1-7.451-2.503L8.58 26a18.18 18.18 0 0 1 2.892-3.553l.008-.007a16.956 16.956 0 0 1 6.4-3.866l.12-.034c.936 2.533 1.787 5.6 2.398 8.753l.062.387c-1.301.507-2.808.8-4.382.8h-.082H16zm7.06-2.22c-.674-3.296-1.467-6.105-2.44-8.828l.14.448c.767-.115 1.652-.18 2.552-.18h.009a22.13 22.13 0 0 1 5.051.611l-.151-.031a12.515 12.515 0 0 1-5.12 7.953l-.04.027z"/></symbol><symbol id="icon-social_fb" viewBox="0 0 18 32"><title>social_fb</title><path d="M17.102 0h-4.267A7.378 7.378 0 0 0 4.96 7.9l-.001-.024v3.556H.653a.658.658 0 0 0-.654.732v-.003 5.333c0 .363.294.658.658.658h.019-.001 4.284v13.28c0 .363.295.658.658.658h.019-.001 5.6a.658.658 0 0 0 .658-.658V18.081h5.031a.658.658 0 0 0 .658-.658v-5.335a.638.638 0 0 0-.195-.46.673.673 0 0 0-.475-.196h-5.018V8.428c0-1.476.356-2.222 2.347-2.222h2.88a.659.659 0 0 0 .658-.658V.659a.658.658 0 0 0-.658-.658h-.019.001z"/></symbol><symbol id="icon-social_instagram" viewBox="0 0 32 32"><title>social_instagram</title><path d="M23.16 0H8.84A8.84 8.84 0 0 0 0 8.84v14.34A8.84 8.84 0 0 0 8.84 32h14.34A8.84 8.84 0 0 0 32 23.16V8.84A8.84 8.84 0 0 0 23.16 0zm6 23.16a6 6 0 0 1-6 6H8.84a6 6 0 0 1-6-6V8.84a6 6 0 0 1 6-6h14.34a6 6 0 0 1 6 6zM16 7.76c-4.551 0-8.24 3.689-8.24 8.24s3.689 8.24 8.24 8.24A8.24 8.24 0 0 0 24.24 16a8.26 8.26 0 0 0-8.239-8.24H16zm0 13.64a5.4 5.4 0 1 1 5.4-5.4 5.42 5.42 0 0 1-5.399 5.4H16zm8.6-16h-.029a2 2 0 1 0 1.428.6 1.999 1.999 0 0 0-1.396-.66h-.004z"/></symbol><symbol id="icon-social_twitter" viewBox="0 0 39 32"><title>social_twitter</title><path d="M37.783.594a15.714 15.714 0 0 1-4.971 1.948l-.104.018A7.87 7.87 0 0 0 26.903 0h-.001a8.024 8.024 0 0 0-7.977 8.023v.048-.002.023c0 .648.075 1.279.217 1.884l-.011-.056a22.52 22.52 0 0 1-16.4-8.391l-.034-.044a8.068 8.068 0 0 0-1.08 4.057 8.153 8.153 0 0 0 3.521 6.714l.027.018a7.88 7.88 0 0 1-3.65-1.049l.038.02v.22A8.07 8.07 0 0 0 7.9 19.349l.053.01a7.731 7.731 0 0 1-2.065.274h-.04.002-.029c-.523 0-1.035-.05-1.53-.145l.051.008c1.026 3.226 3.958 5.538 7.442 5.623h.01a15.762 15.762 0 0 1-9.763 3.361l-.141-.001h.007a16.267 16.267 0 0 1-1.943-.002l.045.002C3.405 30.687 7.57 32 12.041 32l.196-.001h-.01c12.526-.012 22.676-10.169 22.676-22.697l-.002-.313v.016-1.051a16.306 16.306 0 0 0 3.917-4.101l.037-.059a15.343 15.343 0 0 1-4.494 1.272l-.078.008A8.154 8.154 0 0 0 37.764.651l.016-.057z"/></symbol><symbol id="icon-social_vk" viewBox="0 0 53 32"><title>social_vk</title><path d="M52.297 28.914l-.183-.366A28.919 28.919 0 0 0 46.9 22.12l-.02-.018q-1.76-1.783-2.286-2.286a2.27 2.27 0 0 1-.538-1.473c0-.292.055-.571.155-.828l-.005.016a22.26 22.26 0 0 1 2.501-3.859l-.033.042 1.783-2.491q4.663-7.04 4.114-8.937l-.251-.274a1.571 1.571 0 0 0-.835-.478l-.01-.002a4.041 4.041 0 0 0-1.787.005l.027-.005h-7.886a.949.949 0 0 0-.555.002l.007-.002h-.503a1.282 1.282 0 0 0-.295.293l-.003.004a2.05 2.05 0 0 0-.27.489l-.005.014c-.955 2.671-1.972 4.919-3.146 7.069l.129-.257q-1.006 1.806-1.851 3.131c-.453.743-.92 1.385-1.434 1.986l.017-.021c-.327.359-.67.688-1.035.992l-.017.013q-.457.389-.709.32l-.457-.114a1.909 1.909 0 0 1-.612-.698l-.005-.011a3.324 3.324 0 0 1-.319-1.129l-.001-.014V3.725a7.134 7.134 0 0 0-.003-1.355l.002.029a4.774 4.774 0 0 0-.309-.968l.012.031a1.567 1.567 0 0 0-.566-.705l-.005-.003a3.009 3.009 0 0 0-.893-.384l-.021-.004a16.79 16.79 0 0 0-3.535-.367L25.271 0h.009a16.897 16.897 0 0 0-6.657.742l.12-.033a3.782 3.782 0 0 0-1.024.862l-.005.006q-.503.709-.137.709a3.294 3.294 0 0 1 2.28 1.25l.005.007.16.343c.17.389.305.842.384 1.315l.005.034c.127.619.217 1.35.25 2.095l.001.031a24.68 24.68 0 0 1-.005 3.741l.005-.084q-.137 1.531-.251 2.286c-.061.509-.19.972-.378 1.404l.012-.032a5.67 5.67 0 0 1-.335.667l.015-.027-.137.137a1.904 1.904 0 0 1-.717.137h-.015.001a1.668 1.668 0 0 1-.939-.413l.002.001a6.793 6.793 0 0 1-1.133-1.107l-.01-.013c-.462-.586-.9-1.244-1.287-1.935l-.039-.076q-.731-1.166-1.531-2.903l-.434-.869q-.411-.823-1.12-2.286t-1.257-3.131a1.93 1.93 0 0 0-.658-.911l-.005-.003h-.137a1.872 1.872 0 0 0-.425-.338l-.009-.005a2.72 2.72 0 0 0-.717-.204l-.015-.002-7.383.069a1.821 1.821 0 0 0-1.576.548l-.001.001L0 2.287a.967.967 0 0 0 .002.464l-.001-.007c.009.29.067.563.166.817l-.006-.017q1.646 4.023 3.566 7.886t3.36 6.126q1.417 2.286 2.903 4.411t1.966 2.651l.754.869.686.709a16.797 16.797 0 0 0 1.877 1.638l.043.031a31.528 31.528 0 0 0 2.662 1.769l.15.082a14.472 14.472 0 0 0 3.484 1.528l.105.026c1.009.315 2.169.497 3.371.497.221 0 .441-.006.66-.018l-.03.001h3.154a2.12 2.12 0 0 0 1.44-.64v-.137c.089-.158.16-.341.203-.535l.003-.014a3.098 3.098 0 0 0-.002-.816l.002.016a10.306 10.306 0 0 1 .194-2.352l-.011.066a6.168 6.168 0 0 1 .473-1.547l-.016.039c.244-.264.522-.492.829-.676l.017-.009c.134-.164.284-.307.45-.43l.007-.005h.229a1.666 1.666 0 0 1 1.555.456 9.448 9.448 0 0 1 1.652 1.669l.016.022q.777 1.006 1.874 2.286a13.31 13.31 0 0 0 1.894 1.854l.026.02.549.343a6.32 6.32 0 0 0 1.371.627l.046.013a2.873 2.873 0 0 0 1.549.134l-.018.003 7.017-.114a2.993 2.993 0 0 0 1.638-.374l-.015.008c.321-.17.565-.451.683-.79l.003-.01a2.425 2.425 0 0 0 .043-1.159l.003.016a3.83 3.83 0 0 0-.284-.823l.01.023z"/></symbol><symbol id="icon-phone" viewBox="0 0 32 32"><title>phone</title><path d="M22 20c-2 2-2 4-4 4s-4-2-6-4-4-4-4-6 2-2 4-4-4-8-6-8-6 6-6 6c0 4 4.109 12.109 8 16s12 8 16 8c0 0 6-4 6-6s-6-8-8-6z"/></symbol><symbol id="icon-location" viewBox="0 0 32 32"><title>location</title><path d="M16 0C10.477 0 6 4.477 6 10c0 10 10 22 10 22s10-12 10-22c0-5.523-4.477-10-10-10zm0 16a6 6 0 1 1 0-12 6 6 0 0 1 0 12z"/></symbol></defs></svg>